<svg viewBox="0 0 720 400" xmlns="http://www.w3.org/2000/svg" font-family="-apple-system, 'Segoe UI', Helvetica, Arial, sans-serif">
  <rect width="720" height="400" fill="#ffffff"/>

  <text x="360" y="34" text-anchor="middle" font-size="20" font-weight="700" fill="#1a1a1a">This setup vs. Windows 11 — idle, nothing open</text>
  <text x="360" y="54" text-anchor="middle" font-size="12" fill="#666666">Same low-end hardware class (Celeron N-series, 4GB-class RAM) · typical published figures</text>

  <!-- RAM chart -->
  <text x="170" y="90" text-anchor="middle" font-size="14" font-weight="600" fill="#1a1a1a">RAM usage (GB)</text>
  <line x1="70" y1="290" x2="270" y2="290" stroke="#cccccc" stroke-width="1"/>
  <rect x="95" y="150" width="60" height="140" fill="#0078d4"/>
  <text x="125" y="140" text-anchor="middle" font-size="13" font-weight="700" fill="#0078d4">~3.5</text>
  <text x="125" y="308" text-anchor="middle" font-size="11" fill="#444444">Windows 11</text>

  <rect x="185" y="238" width="60" height="52" fill="#E95420"/>
  <text x="215" y="228" text-anchor="middle" font-size="13" font-weight="700" fill="#E95420">~1.3</text>
  <text x="215" y="308" text-anchor="middle" font-size="11" fill="#444444">This setup</text>

  <!-- CPU chart -->
  <text x="530" y="90" text-anchor="middle" font-size="14" font-weight="600" fill="#1a1a1a">CPU usage (%)</text>
  <line x1="430" y1="290" x2="630" y2="290" stroke="#cccccc" stroke-width="1"/>

  <rect x="455" y="283" width="60" height="7" fill="#0078d4"/>
  <text x="485" y="275" text-anchor="middle" font-size="13" font-weight="700" fill="#0078d4">~2%</text>
  <text x="485" y="308" text-anchor="middle" font-size="11" fill="#444444">Windows 11</text>

  <rect x="545" y="279" width="60" height="11" fill="#E95420"/>
  <text x="575" y="271" text-anchor="middle" font-size="13" font-weight="700" fill="#E95420">~3%</text>
  <text x="575" y="308" text-anchor="middle" font-size="11" fill="#444444">This setup</text>

  <!-- legend -->
  <rect x="70" y="335" width="12" height="12" fill="#0078d4"/>
  <text x="88" y="345" font-size="11" fill="#333333">Windows 11 — typical published idle figures for similar hardware</text>
  <rect x="70" y="355" width="12" height="12" fill="#E95420"/>
  <text x="88" y="365" font-size="11" fill="#333333">This setup — typical published idle figures for stock Ubuntu GNOME</text>

  <text x="70" y="385" font-size="10" fill="#999999">Reference figures for a clean idle state, not measured on this exact machine.</text>
</svg>
